# xmcd
#
# Track frame offsets:
#	150
#	12158
#	28950
#	45075
#	58890
#	79445
#	91953
#	103970
#	115190
#	127783
#	139278
#
# Disc length: 2037 seconds
#
# Revision: 1
# Processed by: cddbd v1.4PL0 Copyright (c) Steve Scherf et al.
# Submitted via: audiograbber 1.80
#
DISCID=9107f30b
DTITLE=Charlie Rich - The Fabulous Charlie Rich
DYEAR=1900
DGENRE=
TTITLE0=I Almost Lost My Mind
TTITLE1=Life Has Its Little Ups and Downs
TTITLE2=San Francisco Is a Lonely Town
TTITLE3=Sittin' and Thinkin'
TTITLE4=July 12, 1939
TTITLE5=Bright Lights, Big City
TTITLE6=Raggedy Ann
TTITLE7=Have You Ever Been Lonely (Have You Ever Been Blue)
TTITLE8=A Picture of You
TTITLE9=Love Waits for Me
TTITLE10=It Makes Me Want to Cry
EXTD=
EXTT0=
EXTT1=
EXTT2=
EXTT3=
EXTT4=
EXTT5=
EXTT6=
EXTT7=
EXTT8=
EXTT9=
EXTT10=
PLAYORDER=
